<svg xmlns="http://www.w3.org/2000/svg" width="17.49" height="17.48" aria-hidden="true" class="icon icon-instagram"><path d="M17.44 5.12A5.13 5.13 0 0 0 16 1.46 5.17 5.17 0 0 0 12.36 0H5.14a5.26 5.26 0 0 0-3.67 1.45A5.13 5.13 0 0 0 .06 5.12C0 6.57 0 10.94.06 12.34A5.12 5.12 0 0 0 1.47 16a5.22 5.22 0 0 0 3.67 1.41c1.44.08 5.82.07 7.22 0A5.08 5.08 0 0 0 16 16a5.23 5.23 0 0 0 1.42-3.67c.1-1.41.08-5.81.02-7.21Zm-1.87 8.77a2.93 2.93 0 0 1-1.67 1.66c-1.15.46-3.88.36-5.15.36s-4 .08-5.16-.36a3 3 0 0 1-1.66-1.66c-.46-1.15-.35-3.88-.35-5.16s-.09-4 .35-5.16a3 3 0 0 1 1.66-1.66c1.15-.46 3.88-.35 5.16-.35s4-.09 5.15.35a2.93 2.93 0 0 1 1.67 1.66c.46 1.15.35 3.89.35 5.16s.08 4.01-.35 5.16Z"/><path d="M8.74 4.25a4.47 4.47 0 1 0 3.18 1.31 4.49 4.49 0 0 0-3.18-1.31Zm2.07 6.55a2.92 2.92 0 1 1 .85-2.06 2.91 2.91 0 0 1-.85 2.06ZM13.81 3.09a1 1 0 0 0-1.14.23 1.06 1.06 0 0 0-.23 1.15 1 1 0 0 0 1 .64 1.09 1.09 0 0 0 .74-.3 1.07 1.07 0 0 0 .3-.74 1.06 1.06 0 0 0-.67-.98Z"/></svg>