<svg id="Laag_1" data-name="Laag 1" xmlns="http://www.w3.org/2000/svg" viewBox="0 0 17.48 17.47"><defs><style>.cls-1{fill:#fff;}</style></defs><path class="cls-1" d="M17.44,5.12A5.1,5.1,0,0,0,16,1.46,5.14,5.14,0,0,0,12.36,0H5.14A5.26,5.26,0,0,0,1.47,1.45,5.12,5.12,0,0,0,.06,5.12C0,6.57,0,10.94.06,12.34A5.12,5.12,0,0,0,1.47,16a5.2,5.2,0,0,0,3.67,1.41c1.44.08,5.82.07,7.22,0A5.09,5.09,0,0,0,16,16a5.25,5.25,0,0,0,1.42-3.67C17.52,10.92,17.5,6.52,17.44,5.12Zm-1.87,8.77a3,3,0,0,1-1.67,1.66c-1.15.46-3.88.36-5.15.36s-4,.08-5.16-.36a3,3,0,0,1-1.66-1.66c-.46-1.15-.35-3.88-.35-5.16s-.09-4,.35-5.16A3,3,0,0,1,3.59,1.91c1.15-.46,3.88-.35,5.16-.35s4-.09,5.15.35a3,3,0,0,1,1.67,1.66c.46,1.15.35,3.89.35,5.16S16,12.74,15.57,13.89Z" transform="translate(-0.01 0)"/><path class="cls-1" d="M8.74,4.25a4.47,4.47,0,1,0,3.18,1.31A4.47,4.47,0,0,0,8.74,4.25Zm2.07,6.55a2.92,2.92,0,1,1,.85-2.06A2.92,2.92,0,0,1,10.81,10.8Zm3-7.71a1,1,0,0,0-1.14.23,1.07,1.07,0,0,0-.23,1.15,1,1,0,0,0,1,.64,1,1,0,0,0,.37-2Z" transform="translate(-0.01 0)"/></svg>