<svg xmlns="http://www.w3.org/2000/svg" width="448.92" height="113.64" aria-hidden="true" class="graphic graphic-logo-pleasing"><path d="M70.64 12.83c-3.31-4-8-7.18-14.18-9.44S43 0 34.59 0a150.49 150.49 0 0 0-16.73 1C12.14 1.59 6.18 2.45 0 3.5v.34a10.09 10.09 0 0 1 5.53 4.07 11.78 11.78 0 0 1 1.81 6.56V74a13.77 13.77 0 0 1-1.81 7.23A10.68 10.68 0 0 1 0 85.78v.35h32.33v-.35A11.14 11.14 0 0 1 27 81.26 13.51 13.51 0 0 1 25.09 74V54c.72.15 1.45.31 2.2.44a57.17 57.17 0 0 0 10.24.9 50.48 50.48 0 0 0 13.17-1.77A44.83 44.83 0 0 0 63 48.26a29.28 29.28 0 0 0 9.1-8.82A22.06 22.06 0 0 0 75.61 27a21.6 21.6 0 0 0-4.97-14.17Zm-20.4 33.29Q44.08 52 33.11 52a46.36 46.36 0 0 1-6.83-.57l-1.19-.19V12c0-3 .88-5.26 2.66-6.72s4.77-2.21 9-2.21a17.76 17.76 0 0 1 10.72 3.2 19.66 19.66 0 0 1 6.67 9 36.71 36.71 0 0 1 2.26 13.44q0 11.52-6.16 17.41Zm112.14 3.39A21.37 21.37 0 0 0 159 37.69a23.39 23.39 0 0 0-9.27-8.24 28.89 28.89 0 0 0-13.34-3 29.18 29.18 0 0 0-12.55 2.65 31.59 31.59 0 0 0-9.89 7.29 33.14 33.14 0 0 0-6.5 10.61 34.78 34.78 0 0 0-2.26 12.49 30.08 30.08 0 0 0 2.57 11.86 25.25 25.25 0 0 0 6.1 8.82 27.91 27.91 0 0 0 19 7.46 28.57 28.57 0 0 0 12.63-2.76 31.31 31.31 0 0 0 10.12-7.58 34.72 34.72 0 0 0 6.49-10.79l-.45-.35a25.3 25.3 0 0 1-8.7 7 24.83 24.83 0 0 1-11.3 2.61 21.47 21.47 0 0 1-10.52-2.55A17.16 17.16 0 0 1 124 65.1q-2.48-5.28-2.59-13.45h41Zm-41-1.25a29.89 29.89 0 0 1 1.74-9.55 14.72 14.72 0 0 1 4.92-6.9 11.62 11.62 0 0 1 6.84-2.2 9.37 9.37 0 0 1 5.92 1.87 12 12 0 0 1 3.8 5.93 37.25 37.25 0 0 1 1.46 10.85Zm186.46 37.52v.35h-27.58v-.35a9.46 9.46 0 0 0 3.89-4.07 12.91 12.91 0 0 0 1.42-6.1V35.08h.34a14.28 14.28 0 0 0 1.74 1.33 13.6 13.6 0 0 0 12.8 0 14.28 14.28 0 0 0 1.74-1.33h.34v40.53a12.91 12.91 0 0 0 1.42 6.1 9.46 9.46 0 0 0 3.89 4.07Zm66.85-3.84a14.56 14.56 0 0 1-1.19-6.33V39.33a13 13 0 0 0-3.39-9.33q-3.39-3.56-9.6-3.56a23.53 23.53 0 0 0-7.24 1.19 41.14 41.14 0 0 0-7.35 3.16 64.91 64.91 0 0 0-6.78 4.21q-3.17 2.26-5.53 4.29l-.12-.12c.07-1 .15-2.21.22-3.49s.12-2.45.12-3.51V26.1h-.34a19.84 19.84 0 0 1-6.05 4.81 35.52 35.52 0 0 1-7.68 2.94 48.55 48.55 0 0 1-8.2 1.41v.34a7.09 7.09 0 0 1 4.69 3.79 13.52 13.52 0 0 1 1.31 5.82v30.4a11.55 11.55 0 0 1-1.54 6 11.05 11.05 0 0 1-4.46 4.17v.35h27.13v-.35a8.65 8.65 0 0 1-3.79-4.12 14.37 14.37 0 0 1-1.19-5.93V41.25a57.43 57.43 0 0 1 8.59-3.44 26.85 26.85 0 0 1 7.92-1.42q3.72 0 5.42 2.1a9.17 9.17 0 0 1 1.7 5.92v31.32a14.74 14.74 0 0 1-1.13 6.16 8.49 8.49 0 0 1-3.84 3.89v.35h26v-.35a8.29 8.29 0 0 1-3.68-3.84Zm-80.32-52.11a11.85 11.85 0 0 1-6.32-1.74 12.43 12.43 0 0 1-4.45-4.52 11.73 11.73 0 0 1-1.6-6 12.55 12.55 0 0 1 1.6-6.39 11.49 11.49 0 0 1 4.45-4.38 12.61 12.61 0 0 1 6.32-1.6 11.4 11.4 0 0 1 5.91 1.6 12.42 12.42 0 0 1 4.38 4.38 12.21 12.21 0 0 1 1.67 6.39 11.42 11.42 0 0 1-1.67 6 13.53 13.53 0 0 1-4.38 4.52 10.74 10.74 0 0 1-5.91 1.74Zm93 28.43.15.18.13.11Zm41.48-29.32a4.51 4.51 0 0 1 2.8-1.16 4.25 4.25 0 0 1 3.13 1.39c.87.93 1.83 1.88 2.84 2.85a5.74 5.74 0 0 0 4.16 1.45 6.79 6.79 0 0 0 4.94-2.18 7.54 7.54 0 0 0 2.18-5.56 8 8 0 0 0-2.34-5.86 7.89 7.89 0 0 0-5.75-2.34 11.63 11.63 0 0 0-6.28 2 23.86 23.86 0 0 0-5.62 5.27 28.28 28.28 0 0 0-3.07 4.93c-.47-.25-1-.48-1.51-.71a35.59 35.59 0 0 0-14.07-2.72 32.59 32.59 0 0 0-13.78 2.84 25.22 25.22 0 0 0-9.77 7.61 17.29 17.29 0 0 0-3.63 10.69 15.55 15.55 0 0 0 3.63 10c.11.15.24.29.36.44l.3.33.28.29a31.92 31.92 0 0 0 3.83 3.23q.4.31.87.63c-5.29 3.1-9.64 8.26-9.2 13.53a8.76 8.76 0 0 0 .44 2.07c2.15 6.3 11.91 8.7 27.41 12.04 12.74 2.6 20.14 4.93 21.68 8.74a3.51 3.51 0 0 1 .28 1.19 5.55 5.55 0 0 1-1 3.52 11.79 11.79 0 0 1-5.36 4.14 17.72 17.72 0 0 1-3.91 1.12c-4.93.86-9.91-.37-14.38-2.43A57.08 57.08 0 0 1 396 98.41a19.72 19.72 0 0 1-5.24-6.18 1.67 1.67 0 0 0-.38.06l-3.65 17.36-.43 2a52.74 52.74 0 0 0 8.3 1.22c3.09.29 6.2.49 9.3.62a90.33 90.33 0 0 0 11.28-.15 45.52 45.52 0 0 0 12-2.69 35.13 35.13 0 0 0 8.88-4.74 26.58 26.58 0 0 0 6-6.12 19.12 19.12 0 0 0 3-6.78 14.65 14.65 0 0 0 .3-4.33 14.35 14.35 0 0 0-.22-1.62c-1.45-8.39-8.83-13-26.84-14.85-6.69-.63-12.14-1.13-16.28-1.66-1-.13-2-.28-2.84-.41-4.13-.67-6.34-1.45-6.46-2.61s1.08-2.41 2.68-3.42c.33.17.67.32 1 .48a32.41 32.41 0 0 0 6.6 2c1 .19 2 .32 3 .43a37.25 37.25 0 0 0 4.14.21 36.29 36.29 0 0 0 14.07-2.65 26.07 26.07 0 0 0 10.08-7.14 15.19 15.19 0 0 0 3.75-10 17.19 17.19 0 0 0-3.75-10.93 23.7 23.7 0 0 0-7-6 7.45 7.45 0 0 1 1.58-1.57Zm-10.42 30.73a8.49 8.49 0 0 1-7.79 4.33 8.74 8.74 0 0 1-8-4.34C400.89 56.76 400 52.55 400 47q0-8.59 2.59-13a8.52 8.52 0 0 1 7.9-4.42c3.7 0 6.39 1.46 8 4.42S421 41.27 421 47c0 5.55-.85 9.76-2.57 12.67ZM103.19 85.78v.35H75.61v-.35a9.4 9.4 0 0 0 3.89-4.07 12.91 12.91 0 0 0 1.42-6.1V.58h.34A13.27 13.27 0 0 0 83 1.9a12.07 12.07 0 0 0 6.4 1.6 12 12 0 0 0 6.4-1.6A13.27 13.27 0 0 0 97.54.58h.34v75a12.91 12.91 0 0 0 1.42 6.1 9.46 9.46 0 0 0 3.89 4.1Zm118.31-4.07a13.25 13.25 0 0 1-1.37-6.1V39.16a10.83 10.83 0 0 0-5.18-9.23c-2.74-1.82-6.47-2.92-11.22-3.3-1.27-.1-2.63-.15-4-.15a45.64 45.64 0 0 0-11.18 1.36 42.22 42.22 0 0 0-9.84 3.72 24.14 24.14 0 0 0-7 5.42A9.89 9.89 0 0 0 169 43.4a6.25 6.25 0 0 0 2 4.81 7.11 7.11 0 0 0 5 1.86 8.72 8.72 0 0 0 5.42-1.53 12.58 12.58 0 0 0 3.39-3.84 33.48 33.48 0 0 0 2.37-5 29.89 29.89 0 0 1 2.44-5 13.3 13.3 0 0 1 3.5-3.84 9.12 9.12 0 0 1 5.48-1.52c2 0 3.43.54 4.18 1.64a5.89 5.89 0 0 1 .88 2.08 11.65 11.65 0 0 1 .34 2.54V51.6h-.19a73.18 73.18 0 0 0-20.43 4.17Q174.56 59.11 170 64t-4.52 10.34a12.52 12.52 0 0 0 1.93 6.95 13 13 0 0 0 5.3 4.69 17.26 17.26 0 0 0 7.81 1.7 25.54 25.54 0 0 0 8.87-1.58 37 37 0 0 0 7.86-4.07 33.51 33.51 0 0 0 6.1-5.32h.11v1.13a1.48 1.48 0 0 0 0 .21 12.57 12.57 0 0 1-1.18 3.63 9.39 9.39 0 0 1-3.77 4.07v.35h26.71v-.35a9.27 9.27 0 0 1-3.72-4.04ZM203.72 60.3v1.25c-.06 2.9-.11 5.68-.14 8.36 0 1.75 0 3.38-.05 4.87a19.76 19.76 0 0 1-5.67 3.54A17.48 17.48 0 0 1 191 79.8a8.45 8.45 0 0 1-6.27-2.32q-2.33-2.33-2.32-7.07a13.11 13.11 0 0 1 2.59-8 20 20 0 0 1 7.58-5.88 40.78 40.78 0 0 1 11.16-3.23.76.76 0 0 0 .16 0c-.08 2.25-.12 4.61-.18 7Zm74.22 8.07a15.33 15.33 0 0 1-3.62 10.13 23.8 23.8 0 0 1-9.83 6.78c-.22.08-.44.17-.66.24l-.45.13c-8.32 2.58-17.68.72-24.8-1.67a68.65 68.65 0 0 1-11.41-5l1.42-3.54 1-2.42 4.17-10.41h.34a28.8 28.8 0 0 0 2.22 6.3c0 .06.08.17.16.34a30.3 30.3 0 0 0 7.84 9 24.07 24.07 0 0 0 12.56 5c.19 0 .38 0 .57.06a3 3 0 0 0 .43 0h.77a7.16 7.16 0 0 0 5-2.25 7.5 7.5 0 0 0 2.24-6.86 6.77 6.77 0 0 0-1.89-3.57 15.65 15.65 0 0 0-5.14-3.43 60.24 60.24 0 0 0-7.41-2.67c-2.4-.82-4.84-1.71-7.28-2.65a32.45 32.45 0 0 1-6.73-3.5 17.38 17.38 0 0 1-5-5.2 13.92 13.92 0 0 1-1.91-7.41 14.85 14.85 0 0 1 2.14-7.91 21.09 21.09 0 0 1 5.83-6.11 28 28 0 0 1 8.3-3.95 34.26 34.26 0 0 1 9.6-1.35 43.55 43.55 0 0 1 9.39 1 32.85 32.85 0 0 1 8.45 3.1l-4.5 15.1h-.23a30.52 30.52 0 0 0-3.78-7.91 20.85 20.85 0 0 0-5.71-5.82 12.84 12.84 0 0 0-7.34-2.21 11.49 11.49 0 0 0-7.23 2.29 7.36 7.36 0 0 0-2.88 6.1 6.81 6.81 0 0 0 2.26 5.32 20.16 20.16 0 0 0 6 3.56c2.52 1 5.3 2 8.31 3a45 45 0 0 1 9.32 3.78 21.35 21.35 0 0 1 6.9 5.82 13.66 13.66 0 0 1 2.58 8.79Zm-41.64.56s-.01-.01 0 0Zm21.83 14.41Zm-21.84-14.45Zm21.84 14.45Z"/></svg>