<svg id="Laag_1" data-name="Laag 1" xmlns="http://www.w3.org/2000/svg" viewBox="0 0 448.9 113.6"><defs><style>.cls-1{fill:#fff;}</style></defs><path class="cls-1" d="M70.64,12.83c-3.31-4-8-7.18-14.18-9.44A63.64,63.64,0,0,0,34.59,0,150.82,150.82,0,0,0,17.86,1C12.14,1.59,6.18,2.45,0,3.5v.34A10.11,10.11,0,0,1,5.53,7.91a11.7,11.7,0,0,1,1.81,6.56V74a13.77,13.77,0,0,1-1.81,7.23A10.68,10.68,0,0,1,0,85.78v.35H32.33v-.35A11.16,11.16,0,0,1,27,81.26,13.53,13.53,0,0,1,25.09,74V54c.72.15,1.45.31,2.2.44a56.74,56.74,0,0,0,10.24.9A50.49,50.49,0,0,0,50.7,53.57,44.62,44.62,0,0,0,63,48.26a29.24,29.24,0,0,0,9.1-8.82A22,22,0,0,0,75.61,27,21.59,21.59,0,0,0,70.64,12.83ZM50.24,46.12Q44.08,52,33.11,52a45.94,45.94,0,0,1-6.83-.57l-1.19-.19V12c0-3,.88-5.26,2.66-6.72s4.77-2.21,9-2.21a17.78,17.78,0,0,1,10.72,3.2,19.65,19.65,0,0,1,6.67,9A36.67,36.67,0,0,1,56.4,28.71Q56.4,40.23,50.24,46.12Zm112.14,3.39A21.32,21.32,0,0,0,159,37.69a23.33,23.33,0,0,0-9.27-8.24,31.1,31.1,0,0,0-25.89-.35A31.71,31.71,0,0,0,114,36.39,33,33,0,0,0,107.45,47a34.82,34.82,0,0,0-2.26,12.49,30.1,30.1,0,0,0,2.57,11.86,25.32,25.32,0,0,0,6.1,8.82,27.89,27.89,0,0,0,19,7.46,28.55,28.55,0,0,0,12.63-2.76,31.27,31.27,0,0,0,10.12-7.58A34.83,34.83,0,0,0,162.1,66.5l-.45-.35a25.3,25.3,0,0,1-8.7,7,24.89,24.89,0,0,1-11.3,2.61,21.53,21.53,0,0,1-10.52-2.55A17.16,17.16,0,0,1,124,65.1q-2.48-5.28-2.59-13.45h41Zm-41-1.25a29.91,29.91,0,0,1,1.74-9.55,14.76,14.76,0,0,1,4.92-6.9,11.58,11.58,0,0,1,6.84-2.2,9.33,9.33,0,0,1,5.92,1.87,12,12,0,0,1,3.8,5.93,37.22,37.22,0,0,1,1.46,10.85ZM307.84,85.78v.35H280.26v-.35a9.44,9.44,0,0,0,3.89-4.07,12.94,12.94,0,0,0,1.42-6.1V35.08h.34a14.83,14.83,0,0,0,1.74,1.33,13.62,13.62,0,0,0,12.8,0,14.83,14.83,0,0,0,1.74-1.33h.34V75.61a12.94,12.94,0,0,0,1.42,6.1,9.44,9.44,0,0,0,3.89,4.07Zm66.85-3.84a14.63,14.63,0,0,1-1.19-6.33V39.33A13,13,0,0,0,370.11,30q-3.39-3.55-9.6-3.56a23.77,23.77,0,0,0-7.24,1.19,40.82,40.82,0,0,0-7.35,3.16A64.88,64.88,0,0,0,339.14,35c-2.11,1.51-4,2.94-5.53,4.29l-.12-.12c.07-1,.15-2.21.22-3.49s.12-2.45.12-3.51V26.1h-.34a19.9,19.9,0,0,1-6.05,4.81,35.72,35.72,0,0,1-7.68,2.94,48.49,48.49,0,0,1-8.2,1.41v.34a7.07,7.07,0,0,1,4.69,3.79,13.63,13.63,0,0,1,1.31,5.82v30.4a11.58,11.58,0,0,1-1.54,6,11.06,11.06,0,0,1-4.46,4.17v.35h27.13v-.35a8.62,8.62,0,0,1-3.79-4.12,14.39,14.39,0,0,1-1.19-5.93V41.25a56.81,56.81,0,0,1,8.59-3.44,26.67,26.67,0,0,1,7.92-1.42q3.72,0,5.42,2.1a9.2,9.2,0,0,1,1.7,5.92V75.73a14.79,14.79,0,0,1-1.13,6.16,8.56,8.56,0,0,1-3.84,3.89v.35h26v-.35a8.25,8.25,0,0,1-3.68-3.84ZM294.37,29.83a11.83,11.83,0,0,1-6.32-1.74,12.44,12.44,0,0,1-4.45-4.52,11.7,11.7,0,0,1-1.6-6,12.54,12.54,0,0,1,1.6-6.39,11.49,11.49,0,0,1,4.45-4.38,12.59,12.59,0,0,1,6.32-1.6,11.38,11.38,0,0,1,5.91,1.6,12.42,12.42,0,0,1,4.38,4.38,12.26,12.26,0,0,1,1.67,6.39,11.44,11.44,0,0,1-1.67,6,13.43,13.43,0,0,1-4.38,4.52A10.78,10.78,0,0,1,294.37,29.83Zm93,28.43.15.18.13.11Zm41.48-29.32a4.48,4.48,0,0,1,2.8-1.16,4.24,4.24,0,0,1,3.13,1.39c.87.93,1.83,1.88,2.84,2.85a5.73,5.73,0,0,0,4.16,1.45,6.76,6.76,0,0,0,4.94-2.18,7.54,7.54,0,0,0,2.18-5.56,8,8,0,0,0-2.34-5.86,7.89,7.89,0,0,0-5.75-2.34,11.65,11.65,0,0,0-6.28,2,23.86,23.86,0,0,0-5.62,5.27,28.21,28.21,0,0,0-3.07,4.93c-.47-.25-1-.48-1.51-.71a35.55,35.55,0,0,0-14.07-2.72,32.52,32.52,0,0,0-13.78,2.84,25.22,25.22,0,0,0-9.77,7.61,17.31,17.31,0,0,0-3.63,10.69,15.54,15.54,0,0,0,3.63,10c.11.15.24.29.36.44l.3.33.28.29a31,31,0,0,0,3.83,3.23q.4.32.87.63c-5.29,3.1-9.64,8.26-9.2,13.53a8.58,8.58,0,0,0,.44,2.07c2.15,6.3,11.91,8.7,27.41,12,12.74,2.6,20.14,4.93,21.68,8.74a3.51,3.51,0,0,1,.28,1.19,5.6,5.6,0,0,1-1,3.52,11.85,11.85,0,0,1-5.36,4.14,17.82,17.82,0,0,1-3.91,1.12c-4.93.86-9.91-.37-14.38-2.43A57.36,57.36,0,0,1,396,98.41a19.72,19.72,0,0,1-5.24-6.18,2.32,2.32,0,0,0-.38.06l-3.65,17.36-.43,2a52.91,52.91,0,0,0,8.3,1.22c3.09.29,6.2.49,9.3.62a90.33,90.33,0,0,0,11.28-.15,45.38,45.38,0,0,0,12-2.69,35.3,35.3,0,0,0,8.88-4.74,26.61,26.61,0,0,0,6-6.12,19.22,19.22,0,0,0,3-6.78,14.65,14.65,0,0,0,.3-4.33,15,15,0,0,0-.22-1.62c-1.45-8.39-8.83-13-26.84-14.85-6.69-.63-12.14-1.13-16.28-1.66-1-.13-2-.28-2.84-.41-4.13-.67-6.34-1.45-6.46-2.61s1.08-2.41,2.68-3.42c.33.17.67.32,1,.48a32.42,32.42,0,0,0,6.6,2c1,.19,2,.32,3,.43a35.88,35.88,0,0,0,4.14.21,36.27,36.27,0,0,0,14.07-2.65,26.15,26.15,0,0,0,10.08-7.14,15.19,15.19,0,0,0,3.75-10,17.2,17.2,0,0,0-3.75-10.93,23.72,23.72,0,0,0-7-6,7.58,7.58,0,0,1,1.58-1.57ZM418.43,59.67A8.48,8.48,0,0,1,410.64,64a8.73,8.73,0,0,1-8-4.34C400.89,56.76,400,52.55,400,47q0-8.59,2.59-13a8.52,8.52,0,0,1,7.9-4.42c3.7,0,6.39,1.46,8,4.42S421,41.27,421,47c0,5.55-.85,9.76-2.57,12.67ZM103.19,85.78v.35H75.61v-.35a9.44,9.44,0,0,0,3.89-4.07,12.94,12.94,0,0,0,1.42-6.1V.58h.34A12.44,12.44,0,0,0,83,1.9a12.05,12.05,0,0,0,6.4,1.6,12,12,0,0,0,6.4-1.6A12.44,12.44,0,0,0,97.54.58h.34v75a12.94,12.94,0,0,0,1.42,6.1A9.51,9.51,0,0,0,103.19,85.78ZM221.5,81.71a13.16,13.16,0,0,1-1.37-6.1V39.16A10.84,10.84,0,0,0,215,29.93c-2.74-1.82-6.47-2.92-11.22-3.3-1.27-.1-2.63-.15-4-.15a45.81,45.81,0,0,0-11.18,1.36,41.8,41.8,0,0,0-9.84,3.72,24.17,24.17,0,0,0-7,5.42A9.87,9.87,0,0,0,169,43.4a6.25,6.25,0,0,0,2,4.81,7.11,7.11,0,0,0,5,1.86,8.71,8.71,0,0,0,5.42-1.53,12.48,12.48,0,0,0,3.39-3.84,33.12,33.12,0,0,0,2.37-5,30,30,0,0,1,2.44-5,13.23,13.23,0,0,1,3.5-3.84,9.11,9.11,0,0,1,5.48-1.52c2,0,3.43.54,4.18,1.64a6.08,6.08,0,0,1,.88,2.08A11.42,11.42,0,0,1,204,35.6v16h-.19a73.25,73.25,0,0,0-20.43,4.17Q174.56,59.11,170,64t-4.52,10.34a12.55,12.55,0,0,0,1.93,7,13,13,0,0,0,5.3,4.69,17.28,17.28,0,0,0,7.81,1.7,25.56,25.56,0,0,0,8.87-1.58A37.09,37.09,0,0,0,197.25,82a33.62,33.62,0,0,0,6.1-5.32h.11v1.34a12.56,12.56,0,0,1-1.18,3.63,9.39,9.39,0,0,1-3.77,4.07v.35h26.71v-.35a9.26,9.26,0,0,1-3.72-4ZM203.72,60.3v1.25c-.06,2.9-.11,5.68-.14,8.36,0,1.75,0,3.38-.05,4.87a19.88,19.88,0,0,1-5.67,3.54A17.44,17.44,0,0,1,191,79.8a8.46,8.46,0,0,1-6.27-2.32c-1.55-1.55-2.33-3.91-2.32-7.07a13.09,13.09,0,0,1,2.59-8,20,20,0,0,1,7.58-5.88,41,41,0,0,1,11.16-3.23.43.43,0,0,0,.16,0C203.82,55.55,203.78,57.91,203.72,60.3Zm74.22,8.07a15.32,15.32,0,0,1-3.62,10.13,23.82,23.82,0,0,1-9.83,6.78c-.22.08-.44.17-.66.24l-.45.13c-8.32,2.58-17.68.72-24.8-1.67a68.53,68.53,0,0,1-11.41-5l1.42-3.54,1-2.42,4.17-10.41h.34a28.77,28.77,0,0,0,2.22,6.3,1.72,1.72,0,0,0,.16.34,30.34,30.34,0,0,0,7.84,9,24.05,24.05,0,0,0,12.56,5,1.85,1.85,0,0,1,.57.06h1.2a7.18,7.18,0,0,0,5-2.25,7.51,7.51,0,0,0,2.24-6.86A6.76,6.76,0,0,0,264,70.63a15.76,15.76,0,0,0-5.14-3.43,60.58,60.58,0,0,0-7.41-2.67c-2.4-.82-4.84-1.71-7.28-2.65a32.36,32.36,0,0,1-6.73-3.5,17.34,17.34,0,0,1-5-5.2,13.86,13.86,0,0,1-1.91-7.41,14.86,14.86,0,0,1,2.14-7.91,21,21,0,0,1,5.83-6.11,28.05,28.05,0,0,1,8.3-3.95,34.25,34.25,0,0,1,9.6-1.35,43.54,43.54,0,0,1,9.39,1,32.61,32.61,0,0,1,8.45,3.1l-4.5,15.1h-.23a30.62,30.62,0,0,0-3.78-7.91A20.82,20.82,0,0,0,260,31.92a12.8,12.8,0,0,0-7.34-2.21A11.47,11.47,0,0,0,245.45,32a7.37,7.37,0,0,0-2.88,6.1,6.81,6.81,0,0,0,2.26,5.32,20.15,20.15,0,0,0,6,3.56c2.52,1,5.3,2,8.31,3a45.42,45.42,0,0,1,9.32,3.78,21.39,21.39,0,0,1,6.9,5.82,13.63,13.63,0,0,1,2.58,8.79Zm-41.64.56Z" transform="translate(0 0)"/></svg>