<svg id="Laag_1" data-name="Laag 1" xmlns="http://www.w3.org/2000/svg" viewBox="0 0 17.49 14.2"><defs><style>.cls-1{fill:#fff;}</style></defs><path class="cls-1" d="M15.71,4A10.14,10.14,0,0,1,5.65,14.2H5.51A10.08,10.08,0,0,1,0,12.58a6.46,6.46,0,0,0,.88,0,7.13,7.13,0,0,0,4.45-1.53A3.58,3.58,0,0,1,2,8.61a4.74,4.74,0,0,0,.65.05,3.81,3.81,0,0,0,1-.12A3.59,3.59,0,0,1,.69,5a3.67,3.67,0,0,0,1.62.44A3.61,3.61,0,0,1,1.2.62,10.24,10.24,0,0,0,8.62,4.39,3.59,3.59,0,0,1,12.12,0a3.63,3.63,0,0,1,2.61,1.13A7.12,7.12,0,0,0,17,.26a3.56,3.56,0,0,1-1.57,2,6.72,6.72,0,0,0,2.06-.57,7.58,7.58,0,0,1-1.8,1.86A3.1,3.1,0,0,1,15.71,4Z" transform="translate(0 0)"/></svg>