<svg xmlns="http://www.w3.org/2000/svg" width="17.5" height="14.19" aria-hidden="true" class="icon icon-twitter"><path d="M15.71 4a10.13 10.13 0 0 1-10.2 10.2A10.07 10.07 0 0 1 0 12.58a6.41 6.41 0 0 0 .88 0 7.13 7.13 0 0 0 4.45-1.53A3.58 3.58 0 0 1 2 8.61a4.87 4.87 0 0 0 .65.05 3.81 3.81 0 0 0 .95-.12A3.59 3.59 0 0 1 .69 5a3.7 3.7 0 0 0 1.62.44A3.61 3.61 0 0 1 1.2.62a10.24 10.24 0 0 0 7.42 3.77 3.7 3.7 0 0 1-.09-.8 3.59 3.59 0 0 1 6.2-2.46A7.09 7.09 0 0 0 17 .26a3.58 3.58 0 0 1-1.57 2 6.8 6.8 0 0 0 2.06-.57 7.58 7.58 0 0 1-1.8 1.86c.02.13.02.28.02.45Z"/></svg>