<svg id="Laag_1" data-name="Laag 1" xmlns="http://www.w3.org/2000/svg" viewBox="0 0 25 23"><defs><style>.cls-1{fill:#fff;fill-rule:evenodd;}</style></defs><path class="cls-1" d="M18.14,7a.85.85,0,0,1-.87-.83h0A4.4,4.4,0,0,0,13,1.67a4.4,4.4,0,0,0-4.27,4.5A.87.87,0,0,1,7,6.17,6.09,6.09,0,0,1,13,0a6.09,6.09,0,0,1,6,6.17.84.84,0,0,1-.86.83M1.72,10.65a4.51,4.51,0,0,0,.1.54A40.41,40.41,0,0,0,3.41,17.7c.86,2.36,1.89,3.65,2.9,3.65H18.69c1,0,2-1.29,2.9-3.65a40.79,40.79,0,0,0,1.59-6.52,2.77,2.77,0,0,1,.1-.53ZM18.64,23H6.36C2.26,23,.87,15.17.2,11.41c-.07-.4-.13-.73-.18-1a1.14,1.14,0,0,1,.28-1A1.36,1.36,0,0,1,1.3,9H23.69a1.36,1.36,0,0,1,1,.44,1.14,1.14,0,0,1,.28,1c0,.25-.11.58-.18,1C24.13,15.17,22.75,23,18.64,23Z" transform="translate(0 0)"/></svg>