<svg xmlns="http://www.w3.org/2000/svg" width="25" height="23" aria-hidden="true" class="icon icon-cart"><path d="M18.14 7a.85.85 0 0 1-.87-.83A4.39 4.39 0 0 0 13 1.67a4.39 4.39 0 0 0-4.27 4.5.87.87 0 0 1-1.73 0A6.09 6.09 0 0 1 13 0a6.09 6.09 0 0 1 6 6.17.85.85 0 0 1-.86.83M1.72 10.65c0 .16.07.34.1.54a41 41 0 0 0 1.59 6.51c.86 2.36 1.89 3.65 2.9 3.65h12.38c1 0 2-1.29 2.9-3.65a41.11 41.11 0 0 0 1.59-6.52c0-.19.07-.37.1-.53ZM18.64 23H6.36C2.26 23 .87 15.17.2 11.41c-.07-.4-.13-.73-.18-1a1.14 1.14 0 0 1 .28-1 1.35 1.35 0 0 1 1-.44h22.39a1.35 1.35 0 0 1 1 .44 1.14 1.14 0 0 1 .28 1c-.05.25-.11.58-.18 1C24.13 15.17 22.75 23 18.64 23Z" fill-rule="evenodd"/></svg>